<?xml version="1.0" standalone="no"?><!DOCTYPE svg PUBLIC "-//W3C//DTD SVG 1.1//EN" "http://www.w3.org/Graphics/SVG/1.1/DTD/svg11.dtd"><svg t="1593492312294" class="icon" viewBox="0 0 1025 1024" version="1.1" xmlns="http://www.w3.org/2000/svg" p-id="2552" xmlns:xlink="http://www.w3.org/1999/xlink" width="32.03125" height="32"><defs><style type="text/css"></style></defs><path d="M512.681 569.047l477.375-397.645c-2.605-0.501-4.907-1.652-7.61-1.652H42.92c-2.605 0-4.909 1.151-7.512 1.652l477.273 397.645zM1025.111 212.519c0-4.508-1.2-8.615-2.602-12.72l-338.35 282.057 338.951 338.898c0.801-3.404 2.001-6.659 2.001-10.365v-597.87zM2.855 199.748C1.452 203.855 0.151 207.962 0.151 212.47v597.867c0 3.808 1.301 7.113 2.203 10.469l338.949-339.001L2.855 199.748z" fill="#d81e06" p-id="2553"></path><path d="M651.207 509.25L526.303 613.27c-4.007 3.404-8.814 4.957-13.622 4.957s-9.714-1.553-13.721-4.957L374.257 509.4 32.604 850.903c3.405 0.951 6.61 2.203 10.316 2.203h939.525c3.702 0 7.01-1.252 10.516-2.203L651.207 509.25z" fill="#d81e06" p-id="2554"></path></svg>