<?xml version="1.0" standalone="no"?><!DOCTYPE svg PUBLIC "-//W3C//DTD SVG 1.1//EN" "http://www.w3.org/Graphics/SVG/1.1/DTD/svg11.dtd"><svg t="1591165118489" class="icon" viewBox="0 0 1024 1024" version="1.1" xmlns="http://www.w3.org/2000/svg" p-id="4599" xmlns:xlink="http://www.w3.org/1999/xlink" width="400" height="400"><defs><style type="text/css"></style></defs><path d="M512 0.717C230.81 0.717 0.717 228.475 0.717 512S230.81 1023.283 512 1023.283A509.809 509.809 0 0 0 1023.283 512 509.809 509.809 0 0 0 512 0.717z m0 976.077C256.369 976.794 47.206 767.63 47.206 512 47.206 256.369 256.37 47.206 512 47.206c255.631 0 464.794 209.163 464.794 464.794 0 255.631-209.163 464.794-464.794 464.794z m223.11-483.39l-4.65-2.314h-2.335L409.743 307.487c-4.649-2.315-9.298-4.65-13.926-4.65-13.967 0-23.265 9.299-23.265 23.246v371.834c0 13.927 9.298 23.245 23.244 23.245 4.65 0 9.298-2.334 13.947-4.649L728.125 532.91h2.335l4.65-2.314c4.648-4.65 9.297-11.633 9.297-18.596 0-6.963-4.649-13.926-9.298-18.596zM419.02 658.432V365.568L674.674 512 419.04 658.412z" fill="" p-id="4600"></path></svg>