<?xml version="1.0" standalone="no"?><!DOCTYPE svg PUBLIC "-//W3C//DTD SVG 1.1//EN" "http://www.w3.org/Graphics/SVG/1.1/DTD/svg11.dtd"><svg t="1591164137080" class="icon" viewBox="0 0 1024 1024" version="1.1" xmlns="http://www.w3.org/2000/svg" p-id="1722" xmlns:xlink="http://www.w3.org/1999/xlink" width="400" height="400"><defs><style type="text/css"></style></defs><path d="M1023.940883 34.957982c0-1.359921 0-2.639848-0.559967-3.919774s-0.719958-2.319866-1.03994-3.439801-0.959945-2.799838-1.519912-4.079765a7.999538 7.999538 0 0 1-0.479973-1.279926c0-0.639963-0.799954-1.199931-1.19993-1.919889s-1.439917-2.399861-2.239871-3.599792l-2.399862-2.959829c-0.879949-0.959945-1.759898-1.919889-2.719843-2.799839a28.718342 28.718342 0 0 0-2.879833-2.559852l-3.199816-2.239871c-1.119935-0.639963-2.239871-1.279926-3.439801-1.839893a26.878448 26.878448 0 0 0-3.439801-1.599908l-3.999769-1.279926c-0.799954 0-1.439917-0.559968-2.239871-0.719959h-1.279926a39.997691 39.997691 0 0 0-4.319751-0.479972h-3.679787a34.238023 34.238023 0 0 0-3.919774 0.399977l-3.919774 0.559968-3.439801 1.03994-4.079765 1.279926a7.519566 7.519566 0 0 1-1.19993 0.479972L23.998614 466.61306a39.997691 39.997691 0 0 0-12.319288 8.799492 26.478471 26.478471 0 0 0-2.07988 2.159876L7.999538 479.972289a52.556966 52.556966 0 0 0-3.199815 4.959714 7.999538 7.999538 0 0 0 0 0.799954 39.997691 39.997691 0 0 0 14.639155 51.837007l141.51183 113.513446 70.31594 55.996767a39.997691 39.997691 0 1 0 49.837123-62.636384L177.669742 561.727569l-0.799953-0.479972-62.316403-49.997114L927.946426 111.993534 759.956124 911.947349 571.567001 760.756078l-0.559968-0.799954h-0.879949a40.797645 40.797645 0 0 0-5.519681-3.599792 39.997691 39.997691 0 0 0-46.637308 6.879603l-111.993534 92.31467V754.996411l356.779402-356.379425a40.87764 40.87764 0 0 0 6.319635-51.197044 39.997691 39.997691 0 0 0-61.916425-6.479626l-368.618718 367.978755a40.797645 40.797645 0 0 0-9.759437 14.159183 37.357843 37.357843 0 0 0-2.159875 7.199584 39.437723 39.437723 0 0 0 0 4.31975V945.385419a38.877755 38.877755 0 0 0 0.799954 4.399746l0.959944 3.039824a42.477548 42.477548 0 0 0 1.839894 4.399746c0 0.879949 0.879949 1.759898 1.359921 2.639848a36.71788 36.71788 0 0 0 2.799839 4.079764s0.479972 0.879949 0.799954 1.279926a14.319173 14.319173 0 0 1 1.119935 1.03994 34.078033 34.078033 0 0 0 3.439801 3.359806 31.038208 31.038208 0 0 0 2.479857 2.07988 36.237908 36.237908 0 0 0 3.679788 2.399862 22.558698 22.558698 0 0 0 3.039824 1.679903 38.237792 38.237792 0 0 0 3.839778 1.519912l3.519797 1.119935a31.998153 31.998153 0 0 0 3.839779 0.719959 23.998614 23.998614 0 0 0 4.159759 0 11.679326 11.679326 0 0 0 1.759899 0 14.479164 14.479164 0 0 0 1.839894 0 26.318481 26.318481 0 0 0 4.31975 0 27.438416 27.438416 0 0 0 3.519797-0.719959 37.917811 37.917811 0 0 0 3.999769-1.19993l3.359806-1.359922a38.317788 38.317788 0 0 0 3.599792-1.999884c1.119935-0.639963 2.159875-1.359921 3.199816-2.07988a12.719266 12.719266 0 0 0 1.679903-1.199931l155.19104-127.99261 214.307627 171.99007s0.799954 0.479972 1.119935 0.799954 2.319866 1.519912 3.519797 2.23987 2.239871 1.359921 3.439801 1.919889l3.279811 1.279927a29.918273 29.918273 0 0 0 4.319751 1.359921H780.114961a38.957751 38.957751 0 0 0 3.839778 1.759898h3.679787a33.838046 33.838046 0 0 0 3.999769 0 27.19843 27.19843 0 0 0 3.679788-0.719958l3.759783-1.119935 3.439801-1.439917 3.599793-1.919889 3.119819-2.07988c1.03994-0.719958 1.999885-1.519912 3.039825-2.399862s1.999885-1.999885 2.959829-3.039824l1.599908-1.599908a5.359691 5.359691 0 0 1 0.719958-1.119935 34.398014 34.398014 0 0 0 2.319866-3.599792c0.639963-1.119935 1.279926-2.159875 1.839894-3.279811a26.718457 26.718457 0 0 0 1.359921-3.519797c0.479972-1.359921 0.959945-2.719843 1.359922-4.079764a7.999538 7.999538 0 0 1 0.399977-1.279926L1023.220925 47.997229v-1.279926a39.997691 39.997691 0 0 0 0.479972-4.319751v-3.599792a30.958213 30.958213 0 0 0 0.239986-3.839778z" p-id="1723"></path></svg>