<?xml version="1.0" standalone="no"?><!DOCTYPE svg PUBLIC "-//W3C//DTD SVG 1.1//EN" "http://www.w3.org/Graphics/SVG/1.1/DTD/svg11.dtd"><svg t="1591164199727" class="icon" viewBox="0 0 1024 1024" version="1.1" xmlns="http://www.w3.org/2000/svg" p-id="2448" xmlns:xlink="http://www.w3.org/1999/xlink" width="400" height="400"><defs><style type="text/css"></style></defs><path d="M220.72888889 194.24938667h582.54222222c14.62385778 0 26.47950222-11.85564445 26.47950222-26.47950222S817.89610667 141.29038222 803.27111111 141.29038222H220.72888889c-14.62385778 0-26.47950222 11.85564445-26.47950222 26.47950223 0 14.62499555 11.85564445 26.47950222 26.47950222 26.47950222zM326.64576 88.33251555h370.70848c14.62385778 0 26.47950222-11.85564445 26.47950222-26.47950222s-11.85564445-26.47950222-26.47950222-26.47950222H326.64576c-14.62385778 0-26.47950222 11.85564445-26.47950222 26.47950222 0 14.62499555 11.85564445 26.47950222 26.47950222 26.47950222zM167.77102222 300.16625778h688.45909333c14.62385778 0 26.47950222-11.85564445 26.47950223-26.47950223s-11.85450667-26.47950222-26.47950223-26.47950222H167.77102222c-14.62385778 0-26.47950222 11.85564445-26.47950222 26.47950222 0 14.62499555 11.85450667 26.47950222 26.47950222 26.47950223zM61.85415111 406.08312889h900.29283556c14.62385778 0 26.47836445-11.85564445 26.47836444-26.47950222s-11.85450667-26.47950222-26.47836444-26.47950222H61.85415111c-14.62385778 0-26.47950222 11.85564445-26.47950222 26.47950222 0 14.62499555 11.85564445 26.47950222 26.47950222 26.47950222zM1005.47128889 459.04213333H18.52984889c-19.94524445 0-36.11306667 16.16782222-36.11306667 36.11306667v457.35708445c0 19.94524445 16.16782222 36.11306667 36.11306667 36.11306666h986.94144c19.94410667 0 36.11306667-16.16782222 36.11306666-36.11306666V495.1552c-0.00113778-19.94524445-16.16896-36.11306667-36.11306666-36.11306667z m-16.84593778 476.62535112H35.37464889V512h953.25070222v423.66748445z" p-id="2449"></path><path d="M564.95900445 829.75061333c58.49656889 0 105.91687111-47.42030222 105.9168711-105.91687111s-47.42030222-105.91687111-105.9168711-105.91687111-105.91687111 47.42030222-105.91687112 105.91687111 47.42030222 105.91687111 105.91687112 105.91687111z m0-158.87587555c29.20106667 0 52.95900445 23.7568 52.95900444 52.95900444s-23.7568 52.95786667-52.95900444 52.95786667S512 753.03480889 512 723.83374222s23.7568-52.95900445 52.95900445-52.95900444zM829.75061333 829.75061333c58.49656889 0 105.91687111-47.42030222 105.91687112-105.91687111s-47.42030222-105.91687111-105.91687112-105.91687111-105.91687111 47.42030222-105.91687111 105.91687111 47.42030222 105.91687111 105.91687111 105.91687111z m0-158.87587555c29.20106667 0 52.95786667 23.7568 52.95786667 52.95900444s-23.7568 52.95786667-52.95786667 52.95786667-52.95786667-23.7568-52.95786666-52.95786667 23.7568-52.95900445 52.95786666-52.95900444zM167.77102222 829.75061333c14.62385778 0 26.47950222-11.85564445 26.47950223-26.47950222V644.39637333c0-14.62385778-11.85564445-26.47950222-26.47950223-26.47950222s-26.47950222 11.85564445-26.47950222 26.47950222V803.27111111c0 14.62385778 11.85450667 26.47950222 26.47950222 26.47950222zM326.64576 829.75061333c14.62385778 0 26.47950222-11.85564445 26.47950222-26.47950222V644.39637333c0-14.62385778-11.85450667-26.47950222-26.47950222-26.47950222-14.62385778 0-26.47950222 11.85564445-26.47950222 26.47950222V803.27111111c0 14.62385778 11.85564445 26.47950222 26.47950222 26.47950222z" p-id="2450"></path></svg>