<?xml version="1.0" standalone="no"?><!DOCTYPE svg PUBLIC "-//W3C//DTD SVG 1.1//EN" "http://www.w3.org/Graphics/SVG/1.1/DTD/svg11.dtd"><svg t="1591163886578" class="icon" viewBox="0 0 1024 1024" version="1.1" xmlns="http://www.w3.org/2000/svg" p-id="6775" xmlns:xlink="http://www.w3.org/1999/xlink" width="200" height="200"><defs><style type="text/css"></style></defs><path d="M545.706667 967.253333a32 32 0 0 1-18.133334-5.76L231.893333 757.333333H32A32 32 0 0 1 0 725.333333V298.666667a32 32 0 0 1 32-32h200.106667l295.466666-204.373334a32 32 0 0 1 50.133334 26.24v846.72a32 32 0 0 1-32 32zM64 693.333333h178.133333a32 32 0 0 1 18.133334 5.76L513.706667 874.666667V149.333333L260.266667 325.12a32 32 0 0 1-18.133334 5.76H64zM681.6 765.226667a32 32 0 0 1-13.44-61.226667 209.066667 209.066667 0 0 0 0-379.946667 32 32 0 0 1 26.666667-58.24 273.066667 273.066667 0 0 1 0 496.426667 32 32 0 0 1-13.226667 2.986667z" p-id="6776"></path><path d="M700.586667 925.013333a32 32 0 0 1-8.106667-64 359.893333 359.893333 0 0 0 0-695.893333 32 32 0 0 1 16.426667-61.866667 423.893333 423.893333 0 0 1 0 819.626667 31.573333 31.573333 0 0 1-8.32 2.133333z" p-id="6777"></path></svg>