<?xml version="1.0" standalone="no"?><!DOCTYPE svg PUBLIC "-//W3C//DTD SVG 1.1//EN" "http://www.w3.org/Graphics/SVG/1.1/DTD/svg11.dtd"><svg t="1591691904573" class="icon" viewBox="0 0 1024 1024" version="1.1" xmlns="http://www.w3.org/2000/svg" p-id="4050" xmlns:xlink="http://www.w3.org/1999/xlink" width="240" height="240"><defs><style type="text/css"></style></defs><path d="M381.932903 594.299885c26.315484 0 47.716014 21.40053 47.716015 47.767212v334.165691a47.716014 47.716014 0 0 1-47.767212 47.716015H47.716014A47.716014 47.716014 0 0 1 0 976.232788V642.015899c0-26.366682 21.349333-47.767212 47.716014-47.767211H381.932903z m525.080946 0c26.366682 0 47.716014 21.40053 47.716015 47.767212v334.165691a47.716014 47.716014 0 0 1-47.716015 47.716015h-334.165691a47.716014 47.716014 0 0 1-47.716015-47.716015V642.015899c0-26.366682 21.349333-47.767212 47.716015-47.767211h334.165691z m-572.899355 95.483226H95.534423v238.682466h238.682466v-238.682466z m525.132144 0h-238.682466v238.682466h238.682466v-238.682466zM773.695715 13.976901l236.276186 236.276186a47.716014 47.716014 0 0 1 0 67.529424l-236.276186 236.276186a47.716014 47.716014 0 0 1-67.529423 0L469.890105 317.782511a47.716014 47.716014 0 0 1 0-67.529424L706.166292 13.976901a47.716014 47.716014 0 0 1 67.529423 0zM381.881706 69.218939c26.366682 0 47.767212 21.349333 47.767212 47.716014v334.165692a47.716014 47.716014 0 0 1-47.767212 47.716014H47.716014A47.716014 47.716014 0 0 1 0 451.100645V116.934953c0-26.366682 21.349333-47.716014 47.716014-47.716014H381.932903z m358.023699 46.026499l-168.746763 168.79796 168.746763 168.746762 168.79796-168.746762-168.79796-168.79796z m-405.739713 49.456727H95.483226v238.682466h238.682466V164.702165z" p-id="4051"></path></svg>