<?xml version="1.0" standalone="no"?><!DOCTYPE svg PUBLIC "-//W3C//DTD SVG 1.1//EN" "http://www.w3.org/Graphics/SVG/1.1/DTD/svg11.dtd"><svg t="1591678291146" class="icon" viewBox="0 0 1024 1024" version="1.1" xmlns="http://www.w3.org/2000/svg" p-id="1132" width="120" height="120" xmlns:xlink="http://www.w3.org/1999/xlink"><defs><style type="text/css"></style></defs><path d="M934.256 512c0-44.258 26.872-83.166 68.453-99.129l21.291-8.17-5.63-22.093a519.58 519.58 0 0 0-56.759-137.14l-11.636-19.603-20.826 9.265a106.77 106.77 0 0 1-43.65 9.265 104.984 104.984 0 0 1-74.837-31.062c-31.296-31.296-39.807-77.797-21.681-118.46l9.3-20.866-19.66-11.636A522.382 522.382 0 0 0 641.396 5.625L619.347 0l-8.192 21.238c-16.065 41.616-54.986 68.506-99.142 68.506-44.249 0-83.16-26.872-99.124-68.466L404.715 0 382.62 5.625A519.297 519.297 0 0 0 245.485 62.39l-19.602 11.636 9.26 20.826c18.1 40.698 9.589 87.208-21.677 118.482-19.974 19.98-46.598 30.986-74.96 30.986a106.744 106.744 0 0 1-43.553-9.207l-20.777-9.211-11.641 19.527a516.58 516.58 0 0 0-56.887 137.18L0.035 404.662l21.234 8.192c41.598 16.065 68.48 54.981 68.48 99.142 0 44.249-26.873 83.16-68.467 99.133L0 619.307l5.625 22.09A519.758 519.758 0 0 0 62.38 778.532l11.636 19.606 20.835-9.269a106.709 106.709 0 0 1 43.646-9.265c28.282 0 54.848 11.02 74.827 31.048 31.306 31.301 39.812 77.802 21.69 118.465l-9.3 20.87 19.66 11.637a522.018 522.018 0 0 0 137.22 56.74l22.054 5.617 8.192-21.233c16.083-41.608 54.995-68.493 99.16-68.493 44.254 0 83.161 26.872 99.133 68.462l8.174 21.282 22.094-5.63a519.953 519.953 0 0 0 137.14-56.75l19.607-11.645-9.273-20.835c-18.104-40.694-9.602-87.2 21.676-118.482 19.975-19.975 46.59-30.982 74.947-30.982 15.126 0 29.79 3.103 43.563 9.203l20.781 9.22 11.636-19.531a516.712 516.712 0 0 0 56.888-137.176l5.616-22.094-21.278-8.178c-41.585-15.959-68.448-54.875-68.448-99.12z m-6.516 222.088a158.055 158.055 0 0 0-42.242-5.696c-42.068 0-81.56 16.335-111.221 46.005-40.8 40.813-55.513 99.026-40.25 153.445a469.697 469.697 0 0 1-85.02 35.188C621.325 913.736 569.74 882.972 512 882.972c-57.637 0-109.218 30.764-136.977 80.058a470.278 470.278 0 0 1-85.204-35.242c14.819-53.992-0.076-113.26-40.194-153.37-29.647-29.726-69.108-46.101-111.119-46.101-14.447 0-28.61 1.92-42.334 5.731a468.593 468.593 0 0 1-35.197-85.04c49.293-27.684 80.058-79.274 80.058-137.012 0-57.637-30.765-109.223-80.058-136.977a465.127 465.127 0 0 1 35.285-85.103 158.046 158.046 0 0 0 42.237 5.692c42.06 0 81.561-16.335 111.222-46.005 40.804-40.809 55.526-99.022 40.26-153.445a468.496 468.496 0 0 1 85.013-35.188c27.684 49.294 79.27 80.067 137.004 80.067 57.64 0 109.213-30.764 136.976-80.067a470.712 470.712 0 0 1 85.205 35.242c-14.828 53.992 0.075 113.26 40.184 153.378 29.656 29.727 69.122 46.098 111.129 46.098a157.769 157.769 0 0 0 42.334-5.732 469.12 469.12 0 0 1 35.197 85.045c-49.294 27.67-80.05 79.256-80.05 136.995 0 57.738 30.76 109.328 80.05 137.012a465.929 465.929 0 0 1-35.286 85.076z" p-id="1133" fill="#ffffff"></path><path d="M512 354.632c-86.778 0-157.368 70.594-157.368 157.368S425.226 669.368 512 669.368 669.368 598.774 669.368 512 598.774 354.632 512 354.632z m0 263.607c-58.58 0-106.239-47.663-106.239-106.243 0-58.577 47.663-106.235 106.235-106.235 58.585 0 106.243 47.663 106.243 106.235 0 58.585-47.654 106.243-106.243 106.243z" p-id="1134" fill="#ffffff"></path></svg>