<?xml version="1.0" standalone="no"?><!DOCTYPE svg PUBLIC "-//W3C//DTD SVG 1.1//EN" "http://www.w3.org/Graphics/SVG/1.1/DTD/svg11.dtd"><svg t="1591686266844" class="icon" viewBox="0 0 1024 1024" version="1.1" xmlns="http://www.w3.org/2000/svg" p-id="4205" width="240" height="240" xmlns:xlink="http://www.w3.org/1999/xlink"><defs><style type="text/css"></style></defs><path d="M512.00064 634.026667A91.733333 91.733333 0 1 0 603.733973 725.333333 92.16 92.16 0 0 0 512.00064 634.026667z m0 141.226666A49.066667 49.066667 0 1 1 561.067307 725.333333 49.493333 49.493333 0 0 1 512.00064 775.253333z" fill="#ffffff" p-id="4206"></path><path d="M725.333973 0H298.667307a85.333333 85.333333 0 0 0-85.333334 87.893333v844.8A88.746667 88.746667 0 0 0 298.667307 1024h426.666666a89.173333 89.173333 0 0 0 85.333334-91.306667V87.893333A85.333333 85.333333 0 0 0 725.333973 0z m42.666667 932.693333A46.506667 46.506667 0 0 1 725.333973 981.333333H298.667307a46.08 46.08 0 0 1-42.666667-48.64V87.893333A42.666667 42.666667 0 0 1 298.667307 42.666667h426.666666a42.666667 42.666667 0 0 1 42.666667 45.226666z" fill="#ffffff" p-id="4207"></path><path d="M512.00064 515.413333A210.346667 210.346667 0 1 0 722.347307 725.333333 210.773333 210.773333 0 0 0 512.00064 515.413333z m0 378.026667A167.68 167.68 0 1 1 679.68064 725.333333 168.106667 168.106667 0 0 1 512.00064 893.44zM656.213973 85.333333H366.933973A69.546667 69.546667 0 0 0 298.667307 152.32v248.32A70.4 70.4 0 0 0 366.933973 469.333333h288.853334A71.68 71.68 0 0 0 725.333973 400.64V152.32A69.973333 69.973333 0 0 0 656.213973 85.333333zM682.667307 400.64a29.013333 29.013333 0 0 1-26.453334 26.026667H366.933973a28.16 28.16 0 0 1-25.6-26.026667V152.32A26.88 26.88 0 0 1 366.933973 128h288.853334a27.733333 27.733333 0 0 1 26.453333 24.32z" fill="#ffffff" p-id="4208"></path></svg>