<?xml version="1.0" standalone="no"?><!DOCTYPE svg PUBLIC "-//W3C//DTD SVG 1.1//EN" "http://www.w3.org/Graphics/SVG/1.1/DTD/svg11.dtd"><svg t="1592288291670" class="icon" viewBox="0 0 1024 1024" version="1.1" xmlns="http://www.w3.org/2000/svg" p-id="2200" width="64" height="64" xmlns:xlink="http://www.w3.org/1999/xlink"><defs><style type="text/css"></style></defs><path d="M542.144 0C801.066667 12.074667 1005.866667 222.869333 1024 481.856v60.288C1011.925333 801.066667 801.130667 1005.866667 542.144 1024h-60.288C222.933333 1011.925333 18.133333 801.130667 0 542.144v-60.288C12.074667 222.933333 222.869333 18.133333 481.856 0h60.288zM541.866667 64h-59.733334C261.12 75.946667 81.92 255.146667 64 482.133333v59.733334c11.946667 221.013333 191.146667 400.213333 418.133333 418.133333h59.733334c221.013333-17.92 400.213333-197.12 418.133333-418.133333v-59.733334C948.053333 261.12 768.853333 81.92 541.866667 64z m6.698666 793.962667v73.152h-73.130666v-73.152h73.130666z m233.92-127.189334l51.712 51.712-51.712 51.712-51.712-51.712 51.712-51.712z m-540.970666 0l51.712 51.712-51.712 51.712-51.712-51.712 51.712-51.712z m421.077333-68.181333v120.469333h-60.266667v-60.266666h-60.181333v60.266666h-60.288v-60.266666h-60.181333v60.266666h-60.352V662.613333h301.354666-0.085333z m268.522667-187.157333v73.130666h-73.152v-73.130666h73.152z m-765.077334 0v73.130666H92.885333v-73.130666h73.152zM511.936 241.066667L572.266667 512h-120.533334L512 241.066667h-0.064z m270.613333-51.285334l51.626667 51.712-51.690667 51.712-51.712-51.712 51.712-51.712h0.064z m-541.013333 0l51.690667 51.712-51.712 51.712-51.712-51.712 51.712-51.712z m307.029333-96.917333v73.152h-73.130666V92.885333h73.130666z" p-id="2201" fill="#ffffff"></path></svg>